Coordinates
version=1
nRows=16
nColumns=22
inDegrees=yes

Units are S.I. units (second, meters, Newtons, ...)
If the header above contains a line with 'inDegrees', this indicates whether rotational values are in degrees (yes) or radians (no).

endheader
time	pelvis_tilt	pelvis_list	pelvis_rotation	pelvis_tx	pelvis_ty	pelvis_tz	hip_flexion_r	hip_adduction_r	hip_rotation_r	knee_angle_r	ankle_angle_r	subtalar_angle_r	hip_flexion_l	hip_adduction_l	hip_rotation_l	knee_angle_l	ankle_angle_l	subtalar_angle_l	lumbar_extension	lumbar_bending	lumbar_rotation
      3.58000000	      2.46941025	      6.36396995	    147.33551934	      0.59569587	      1.07017763	     -0.73590706	      3.21204501	      3.77975128	     -5.27075688	    -15.27933565	     11.29405325	      1.59927683	     20.92141903	      0.30472135	      6.39600705	    -65.12258393	     -0.67146405	     -2.66774652	     -6.55061417	      2.47345192	     -1.79067797
      3.59000000	      2.29887009	      6.18700921	    147.84872405	      0.58916339	      1.07058601	     -0.74037959	      2.46786770	      3.59051253	     -5.66255019	    -14.87582782	     11.54329670	      1.50895731	     21.79986760	      0.21007046	      5.61349799	    -63.95345308	      0.43643200	     -3.83528013	     -6.59430382	      2.18677766	     -1.57135328
      3.60000000	      2.14365490	      6.01121805	    148.33533158	      0.58258075	      1.07084920	     -0.74483166	      1.74298396	      3.41578956	     -6.04746070	    -14.49247470	     11.79918368	      1.41486317	     22.61597152	      0.06057333	      4.74059323	    -62.59312706	      1.45539678	     -4.85245332	     -6.63154822	      1.90689420	     -1.34199662
      3.61000000	      2.00448713	      5.83872331	    148.79376292	      0.57594050	      1.07096482	     -0.74927515	      1.04015848	      3.25704487	     -6.42171884	    -14.13603514	     12.06758804	      1.32271968	     23.37003231	     -0.14830327	      3.76989974	    -61.05890361	      2.40677978	     -5.66029607	     -6.66259995	      1.63455701	     -1.10376747
      3.62000000	      1.88860174	      5.66589468	    149.21461061	      0.56924753	      1.07090399	     -0.75371425	      0.37982822	      3.11192157	     -6.77850650	    -13.82875304	     12.40004036	      1.24397297	     24.07490196	     -0.42005740	      2.68861871	    -59.37474585	      3.31761517	     -6.16593836	     -6.67804175	      1.36962961	     -0.83801587
      3.63000000	      1.76564534	      5.50762952	    149.61950108	      0.56244077	      1.07074636	     -0.75812920	     -0.28959441	      2.97768631	     -7.12489553	    -13.53985621	     12.66894551	      1.15878006	     24.68637102	     -0.74226815	      1.50247748	    -57.54418545	      4.18310336	     -6.54814605	     -6.71299944	      1.11380163	     -0.60057347
      3.64000000	      1.68022793	      5.34350110	    149.99021440	      0.55554629	      1.07037389	     -0.76251019	     -0.89265063	      2.85561032	     -7.43635081	    -13.31779631	     13.04946268	      1.09747315	     25.26710896	     -1.11236823	      0.21660978	    -55.60690209	      5.00978884	     -6.67784184	     -6.70964806	      0.87377726	     -0.35065323
      3.65000000	      1.52353165	      5.20293793	    150.33719397	      0.54847754	      1.07002132	     -0.76685193	     -1.57334021	      2.71401273	     -7.74338885	    -13.10776293	     13.37532059	      1.01624533	     25.67055393	     -1.48456594	     -1.16386615	    -53.53721812	      5.74290319	     -6.72994774	     -6.78930616	      0.61512546	     -0.07786438
      3.66000000	      1.43020000	      5.02895213	    150.64536853	      0.54131538	      1.06941122	     -0.77111532	     -2.13585719	      2.56638049	     -8.00897951	    -12.98790237	     13.79002177	      0.97418001	     26.08413379	     -1.86677562	     -2.62274020	    -51.39941942	      6.34344477	     -6.66981900	     -6.78482530	      0.36482388	      0.19642342
      3.67000000	      1.26660137	      4.88132656	    150.94821192	      0.53396334	      1.06881541	     -0.77526778	     -2.77636965	      2.39929910	     -8.29078674	    -12.88289585	     14.17462369	      0.93741769	     26.33023245	     -2.21929139	     -4.12220092	    -49.17383217	      6.78703299	     -6.56123528	     -6.86355825	      0.10889961	      0.46469410
      3.68000000	      1.10627887	      4.73337332	    151.25751776	      0.52643694	      1.06808556	     -0.77927548	     -3.41247650	      2.22805106	     -8.57496401	    -12.79567090	     14.60602549	      0.93496431	     26.51041943	     -2.53011756	     -5.60422375	    -46.89589225	      7.09917829	     -6.43791101	     -6.93183467	     -0.13682735	      0.71520429
      3.69000000	      0.95996393	      4.56942753	    151.55731975	      0.51878114	      1.06722050	     -0.78313728	     -4.01313977	      2.04085780	     -8.85855475	    -12.74630492	     15.04861229	      0.96669772	     26.64761547	     -2.80006084	     -7.09894542	    -44.57304357	      7.21547777	     -6.29719493	     -6.97534674	     -0.38303413	      0.95490378
      3.70000000	      0.81072408	      4.40652892	    151.86728923	      0.51095756	      1.06624784	     -0.78682774	     -4.61941015	      1.84642558	     -9.14689358	    -12.70869208	     15.50623055	      1.03694606	     26.71909184	     -3.02020378	     -8.57461435	    -42.21167448	      7.20581655	     -6.14155272	     -7.01795238	     -0.61768414	      1.16130804
      3.71000000	      0.66634040	      4.23976430	    152.18145381	      0.50300917	      1.06516299	     -0.79037638	     -5.22005424	      1.64564758	     -9.44337811	    -12.68033964	     15.96771135	      1.14224422	     26.73868632	     -3.19732112	    -10.04948467	    -39.82047171	      7.08924647	     -5.97076130	     -7.05472433	     -0.85075689	      1.33648794
      3.72000000	      0.52241776	      4.08075385	    152.50202759	      0.49491576	      1.06398678	     -0.79375898	     -5.82449787	      1.44323957	     -9.77427110	    -12.66355942	     16.41607134	      1.28534205	     26.69797254	     -3.33116892	    -11.51186113	    -37.40542568	      6.89938829	     -5.78616076	     -7.09456449	     -1.06903326	      1.51272763
      3.73000000	      0.40250116	      3.91497840	    152.82037048	      0.48671702	      1.06268753	     -0.79697494	     -6.39188640	      1.23560406	    -10.11880741	    -12.67467767	     16.84716971	      1.45028774	     26.63299325	     -3.42157832	    -12.96885141	    -34.98130506	      6.65677569	     -5.59479741	     -7.11045305	     -1.27602179	      1.67330040
